<svg xmlns="http://www.w3.org/2000/svg" xmlns:xlink="http://www.w3.org/1999/xlink" contentStyleType="text/css" data-diagram-type="STATE" height="1210px" preserveAspectRatio="none" style="width:985px;height:1210px;background:#FFFFFF;" version="1.1" viewBox="0 0 985 1210" width="985px" zoomAndPan="magnify"><defs/><g><path d="M19.5,737 L959.5554,737 A12.5,12.5 0 0 1 972.0554,749.5 L972.0554,763.2969 L7,763.2969 L7,749.5 A12.5,12.5 0 0 1 19.5,737" fill="#F1F1F1"/><rect fill="none" height="257.2969" rx="12.5" ry="12.5" style="stroke:#181818;stroke-width:0.5;" width="965.0554" x="7" y="737"/><line style="stroke:#181818;stroke-width:0.5;" x1="7" x2="972.0554" y1="763.2969" y2="763.2969"/><text fill="#000000" font-family="Courier" font-size="14" lengthAdjust="spacing" textLength="84.2871" x="447.3841" y="754.9951">Networking</text><ellipse cx="476.78" cy="784.2969" fill="#222222" rx="10" ry="10" style="stroke:#222222;stroke-width:1;"/><g id="Networking.Idle"><rect fill="#F1F1F1" height="50" rx="12.5" ry="12.5" style="stroke:#181818;stroke-width:0.5;" width="53.7148" x="449.92" y="831.2969"/><line style="stroke:#181818;stroke-width:0.5;" x1="449.92" x2="503.6348" y1="857.5938" y2="857.5938"/><text fill="#000000" font-family="Courier" font-size="14" lengthAdjust="spacing" textLength="33.7148" x="459.92" y="849.292">Idle</text></g><g id="Networking.SendingFriendRequest"><rect fill="#F1F1F1" height="50" rx="12.5" ry="12.5" style="stroke:#181818;stroke-width:0.5;" width="188.5742" x="102.49" y="934.2969"/><line style="stroke:#181818;stroke-width:0.5;" x1="102.49" x2="291.0642" y1="960.5938" y2="960.5938"/><text fill="#000000" font-family="Courier" font-size="14" lengthAdjust="spacing" textLength="168.5742" x="112.49" y="952.292">SendingFriendRequest</text></g><g id="Networking.Chatting"><rect fill="#F1F1F1" height="50" rx="12.5" ry="12.5" style="stroke:#181818;stroke-width:0.5;" width="87.4297" x="411.06" y="934.2969"/><line style="stroke:#181818;stroke-width:0.5;" x1="411.06" x2="498.4897" y1="960.5938" y2="960.5938"/><text fill="#000000" font-family="Courier" font-size="14" lengthAdjust="spacing" textLength="67.4297" x="421.06" y="952.292">Chatting</text></g><g id="Networking.FindingReferralPath"><rect fill="#F1F1F1" height="50" rx="12.5" ry="12.5" style="stroke:#181818;stroke-width:0.5;" width="180.1455" x="656.7" y="934.2969"/><line style="stroke:#181818;stroke-width:0.5;" x1="656.7" x2="836.8455" y1="960.5938" y2="960.5938"/><text fill="#000000" font-family="Courier" font-size="14" lengthAdjust="spacing" textLength="160.1455" x="666.7" y="952.292">FindingReferralPath</text></g><!--link *start*Networking to Idle--><g class="link" data-entity-1=".start.Networking" data-entity-2="Idle" data-source-line="18" data-uid="lnk16" id="link_.start.Networking_Idle"><path d="M476.78,794.7369 C476.78,803.9969 476.78,812.4869 476.78,824.9769" fill="none" id="*start*Networking-to-Idle" style="stroke:#181818;stroke-width:1;"/><polygon fill="#181818" points="476.78,830.9769,480.78,821.9769,476.78,825.9769,472.78,821.9769,476.78,830.9769" style="stroke:#181818;stroke-width:1;"/></g><!--link Idle to SendingFriendRequest--><g class="link" data-entity-1="Idle" data-entity-2="SendingFriendRequest" data-source-line="20" data-uid="lnk18" id="link_Idle_SendingFriendRequest"><path d="M449.68,857.8469 C358.99,859.9769 70.19,869.1069 42.78,899.2969 C18,926.5869 51.181,940.3156 96.181,948.2456" fill="none" id="Idle-to-SendingFriendRequest" style="stroke:#181818;stroke-width:1;"/><polygon fill="#181818" points="102.09,949.2869,93.9208,943.7856,97.1659,948.4191,92.5324,951.6642,102.09,949.2869" style="stroke:#181818;stroke-width:1;"/><text fill="#000000" font-family="sans-serif" font-size="13" lengthAdjust="spacing" textLength="190.7153" x="43.78" y="912.3638">FriendRequestThread started</text></g><!--link SendingFriendRequest to Idle--><g class="link" data-entity-1="SendingFriendRequest" data-entity-2="Idle" data-source-line="21" data-uid="lnk19" id="link_SendingFriendRequest_Idle"><path d="M222.66,934.0669 C237.01,921.8869 255.76,907.9369 274.78,899.2969 C333.48,872.6369 403.5235,863.2378 443.4835,859.6878" fill="none" id="SendingFriendRequest-to-Idle" style="stroke:#181818;stroke-width:1;"/><polygon fill="#181818" points="449.46,859.1569,440.1413,855.969,444.4796,859.5993,440.8493,863.9376,449.46,859.1569" style="stroke:#181818;stroke-width:1;"/><text fill="#000000" font-family="sans-serif" font-size="13" lengthAdjust="spacing" textLength="120.3262" x="275.78" y="912.3638">request processed</text></g><!--link Idle to Chatting--><g class="link" data-entity-1="Idle" data-entity-2="Chatting" data-source-line="23" data-uid="lnk21" id="link_Idle_Chatting"><path d="M449.53,865.0269 C432.84,871.3269 412.81,882.0669 402.78,899.2969 C395.56,911.6869 398.5227,919.8539 409.8227,929.8839" fill="none" id="Idle-to-Chatting" style="stroke:#181818;stroke-width:1;"/><polygon fill="#181818" points="414.31,933.8669,410.2344,924.9009,410.5706,930.5477,404.9237,930.8839,414.31,933.8669" style="stroke:#181818;stroke-width:1;"/><text fill="#000000" font-family="sans-serif" font-size="13" lengthAdjust="spacing" textLength="126.7817" x="403.78" y="912.3638">ChatThread started</text></g><!--link Chatting to Idle--><g class="link" data-entity-1="Chatting" data-entity-2="Idle" data-source-line="24" data-uid="lnk22" id="link_Chatting_Idle"><path d="M498.91,943.7869 C511.42,937.4069 523.58,928.5069 530.78,916.2969 C541.08,898.8369 527.1793,885.2263 508.9393,874.0763" fill="none" id="Chatting-to-Idle" style="stroke:#181818;stroke-width:1;"/><polygon fill="#181818" points="503.82,870.9469,509.4127,879.0538,508.0861,873.5547,513.5852,872.2281,503.82,870.9469" style="stroke:#181818;stroke-width:1;"/><text fill="#000000" font-family="sans-serif" font-size="13" lengthAdjust="spacing" textLength="83.8843" x="534.78" y="912.3638">chat finished</text></g><!--link Idle to FindingReferralPath--><g class="link" data-entity-1="Idle" data-entity-2="FindingReferralPath" data-source-line="26" data-uid="lnk24" id="link_Idle_FindingReferralPath"><path d="M504.12,863.7369 C533.78,871.0469 582.32,883.9769 622.78,899.2969 C637.43,904.8469 664.3601,917.6307 692.3301,931.3107" fill="none" id="Idle-to-FindingReferralPath" style="stroke:#181818;stroke-width:1;"/><polygon fill="#181818" points="697.72,933.9469,691.3926,926.3994,693.2284,931.7501,687.8778,933.5859,697.72,933.9469" style="stroke:#181818;stroke-width:1;"/><text fill="#000000" font-family="sans-serif" font-size="13" lengthAdjust="spacing" textLength="147.894" x="660.78" y="912.3638">run ReferralPathFinder</text></g><!--link FindingReferralPath to Idle--><g class="link" data-entity-1="FindingReferralPath" data-entity-2="Idle" data-source-line="27" data-uid="lnk25" id="link_FindingReferralPath_Idle"><path d="M797.45,933.9269 C812.05,923.7169 821.47,911.4269 810.78,899.2969 C790.55,876.3669 586.231,863.195 510.091,859.025" fill="none" id="FindingReferralPath-to-Idle" style="stroke:#181818;stroke-width:1;"/><polygon fill="#181818" points="504.1,858.6969,512.8678,863.1831,509.0925,858.9703,513.3053,855.195,504.1,858.6969" style="stroke:#181818;stroke-width:1;"/><text fill="#000000" font-family="sans-serif" font-size="13" lengthAdjust="spacing" textLength="146.2754" x="815.78" y="912.3638">path found / not found</text></g><ellipse cx="489.53" cy="16" fill="#222222" rx="10" ry="10" style="stroke:#222222;stroke-width:1;"/><g id="NotInitialized"><rect fill="#F1F1F1" height="50" rx="12.5" ry="12.5" style="stroke:#181818;stroke-width:0.5;" width="138.002" x="420.53" y="87"/><line style="stroke:#181818;stroke-width:0.5;" x1="420.53" x2="558.532" y1="113.2969" y2="113.2969"/><text fill="#000000" font-family="Courier" font-size="14" lengthAdjust="spacing" textLength="118.002" x="430.53" y="104.9951">NotInitialized</text></g><g id="LoadingData"><rect fill="#F1F1F1" height="50" rx="12.5" ry="12.5" style="stroke:#181818;stroke-width:0.5;" width="112.7158" x="433.17" y="214"/><line style="stroke:#181818;stroke-width:0.5;" x1="433.17" x2="545.8858" y1="240.2969" y2="240.2969"/><text fill="#000000" font-family="Courier" font-size="14" lengthAdjust="spacing" textLength="92.7158" x="443.17" y="231.9951">LoadingData</text></g><g id="Ready"><rect fill="#F1F1F1" height="50" rx="12.5" ry="12.5" style="stroke:#181818;stroke-width:0.5;" width="62.1436" x="458.46" y="356"/><line style="stroke:#181818;stroke-width:0.5;" x1="458.46" x2="520.6036" y1="382.2969" y2="382.2969"/><text fill="#000000" font-family="Courier" font-size="14" lengthAdjust="spacing" textLength="42.1436" x="468.46" y="373.9951">Ready</text></g><g id="MatchingRoommates"><rect fill="#F1F1F1" height="50" rx="12.5" ry="12.5" style="stroke:#181818;stroke-width:0.5;" width="163.2881" x="407.88" y="483"/><line style="stroke:#181818;stroke-width:0.5;" x1="407.88" x2="571.1681" y1="509.2969" y2="509.2969"/><text fill="#000000" font-family="Courier" font-size="14" lengthAdjust="spacing" textLength="143.2881" x="417.88" y="500.9951">MatchingRoommates</text></g><g id="PodsForming"><rect fill="#F1F1F1" height="50" rx="12.5" ry="12.5" style="stroke:#181818;stroke-width:0.5;" width="112.7158" x="433.17" y="610"/><line style="stroke:#181818;stroke-width:0.5;" x1="433.17" x2="545.8858" y1="636.2969" y2="636.2969"/><text fill="#000000" font-family="Courier" font-size="14" lengthAdjust="spacing" textLength="92.7158" x="443.17" y="627.9951">PodsForming</text></g><g id="Terminated"><rect fill="#F1F1F1" height="50" rx="12.5" ry="12.5" style="stroke:#181818;stroke-width:0.5;" width="104.2871" x="437.38" y="1071.3"/><line style="stroke:#181818;stroke-width:0.5;" x1="437.38" x2="541.6671" y1="1097.5969" y2="1097.5969"/><text fill="#000000" font-family="Courier" font-size="14" lengthAdjust="spacing" textLength="84.2871" x="447.38" y="1089.2951">Terminated</text></g><ellipse cx="489.53" cy="1193.3" fill="none" rx="11" ry="11" style="stroke:#222222;stroke-width:1;"/><ellipse cx="489.53" cy="1193.3" fill="#222222" rx="6" ry="6" style="stroke:#222222;stroke-width:1;"/><!--link *start* to NotInitialized--><g class="link" data-entity-1=".start." data-entity-2="NotInitialized" data-source-line="5" data-uid="lnk4" id="link_.start._NotInitialized"><path d="M489.53,26.36 C489.53,40.29 489.53,60.96 489.53,80.65" fill="none" id="*start*-to-NotInitialized" style="stroke:#181818;stroke-width:1;"/><polygon fill="#181818" points="489.53,86.65,493.53,77.65,489.53,81.65,485.53,77.65,489.53,86.65" style="stroke:#181818;stroke-width:1;"/></g><!--link NotInitialized to LoadingData--><g class="link" data-entity-1="NotInitialized" data-entity-2="LoadingData" data-source-line="7" data-uid="lnk6" id="link_NotInitialized_LoadingData"><path d="M489.53,137.4 C489.53,159.43 489.53,185.66 489.53,207.67" fill="none" id="NotInitialized-to-LoadingData" style="stroke:#181818;stroke-width:1;"/><polygon fill="#181818" points="489.53,213.67,493.53,204.67,489.53,208.67,485.53,204.67,489.53,213.67" style="stroke:#181818;stroke-width:1;"/><text fill="#000000" font-family="sans-serif" font-size="13" lengthAdjust="spacing" textLength="90.1875" x="490.53" y="180.0669">start program</text></g><!--link LoadingData to Ready--><g class="link" data-entity-1="LoadingData" data-entity-2="Ready" data-source-line="9" data-uid="lnk8" id="link_LoadingData_Ready"><path d="M489.53,264.39 C489.53,290.09 489.53,324.31 489.53,349.9" fill="none" id="LoadingData-to-Ready" style="stroke:#181818;stroke-width:1;"/><polygon fill="#181818" points="489.53,355.9,493.53,346.9,489.53,350.9,485.53,346.9,489.53,355.9" style="stroke:#181818;stroke-width:1;"/><text fill="#000000" font-family="sans-serif" font-size="13" lengthAdjust="spacing" textLength="105.187" x="490.53" y="307.0669">students parsed</text><text fill="#000000" font-family="sans-serif" font-size="13" lengthAdjust="spacing" textLength="82.4497" x="501.8987" y="322.1997">(DataParser)</text></g><!--link Ready to MatchingRoommates--><g class="link" data-entity-1="Ready" data-entity-2="MatchingRoommates" data-source-line="11" data-uid="lnk10" id="link_Ready_MatchingRoommates"><path d="M489.53,406.4 C489.53,428.43 489.53,454.66 489.53,476.67" fill="none" id="Ready-to-MatchingRoommates" style="stroke:#181818;stroke-width:1;"/><polygon fill="#181818" points="489.53,482.67,493.53,473.67,489.53,477.67,485.53,473.67,489.53,482.67" style="stroke:#181818;stroke-width:1;"/><text fill="#000000" font-family="sans-serif" font-size="13" lengthAdjust="spacing" textLength="107.6182" x="490.53" y="449.0669">run GaleShapley</text></g><!--link MatchingRoommates to PodsForming--><g class="link" data-entity-1="MatchingRoommates" data-entity-2="PodsForming" data-source-line="13" data-uid="lnk12" id="link_MatchingRoommates_PodsForming"><path d="M489.53,533.4 C489.53,555.43 489.53,581.66 489.53,603.67" fill="none" id="MatchingRoommates-to-PodsForming" style="stroke:#181818;stroke-width:1;"/><polygon fill="#181818" points="489.53,609.67,493.53,600.67,489.53,604.67,485.53,600.67,489.53,609.67" style="stroke:#181818;stroke-width:1;"/><text fill="#000000" font-family="sans-serif" font-size="13" lengthAdjust="spacing" textLength="136.4111" x="490.53" y="576.0669">roommates assigned</text></g><!--link PodsForming to Networking--><g class="link" data-entity-1="PodsForming" data-entity-2="Networking" data-source-line="15" data-uid="lnk13" id="link_PodsForming_Networking"><path d="M489.53,660.47 C489.53,679.48 489.53,701.44 489.53,730.61" fill="none" id="PodsForming-to-Networking" style="stroke:#181818;stroke-width:1;"/><polygon fill="#181818" points="489.53,736.61,493.53,727.61,489.53,731.61,485.53,727.61,489.53,736.61" style="stroke:#181818;stroke-width:1;"/><text fill="#000000" font-family="sans-serif" font-size="13" lengthAdjust="spacing" textLength="85.1665" x="490.53" y="703.0669">pods created</text></g><!--link Networking to Terminated--><g class="link" data-entity-1="Networking" data-entity-2="Terminated" data-source-line="30" data-uid="lnk27" id="link_Networking_Terminated"><path d="M489.53,994.68 C489.53,1023.86 489.53,1045.84 489.53,1064.85" fill="none" id="Networking-to-Terminated" style="stroke:#181818;stroke-width:1;"/><polygon fill="#181818" points="489.53,1070.85,493.53,1061.85,489.53,1065.85,485.53,1061.85,489.53,1070.85" style="stroke:#181818;stroke-width:1;"/><text fill="#000000" font-family="sans-serif" font-size="13" lengthAdjust="spacing" textLength="63.6606" x="490.53" y="1037.3669">user exits</text></g><!--link Terminated to *end*--><g class="link" data-entity-1="Terminated" data-entity-2=".end." data-source-line="32" data-uid="lnk29" id="link_Terminated_.end."><path d="M489.53,1121.76 C489.53,1141.34 489.53,1161.79 489.53,1176.1" fill="none" id="Terminated-to-*end*" style="stroke:#181818;stroke-width:1;"/><polygon fill="#181818" points="489.53,1182.1,493.53,1173.1,489.53,1177.1,485.53,1173.1,489.53,1182.1" style="stroke:#181818;stroke-width:1;"/></g><!--SRC=[RL9BJyCm3BxxL-G8I1D2uiI1or3H99YcRZVWO3NU6grDIk8A1kA_OwSRTDfoYlqz_4ZIrlaE8xOcCJ8LmVCSMpBJq4T74T8fldHVP6vk0U3bwirC9lTc7dZc7Jji1B80nt6cF0MqpcyUaD7SgLTaqyMm4MU0CQZaaj3kCgstv3aPwI2HVVKNIbbe42y11feAdf6hMXpA4DfMsamYZhqtZzZGiiQkeHt0AKcbYs1J4M8hW8h-C4p9RRnECsRaQOa_GjmEWav0KqKIZL3pZiQ4Rp1o3dkQsOOWP_IMKqloEdeXo_QsfFUU4eljKRognTyEIvCggZyhEvJGEVOfMN55AMblHsMdDJ8F4-ZrJ8K_niYrafnPE-zIVU9OkDnHIMkA4Pi5Shr_X75AMVAhL7bECAhLQRmElRVcslZ0mnr-v7VzhrVvAzAdqVsBgfUVOUZJSG8O0SgJH_W5]--></g></svg>